Coordinates
version=1
nRows=17
nColumns=36
inDegrees=yes

Units are S.I. units (second, meters, Newtons, ...)
If the header above contains a line with 'inDegrees', this indicates whether rotational values are in degrees (yes) or radians (no).

endheader
time	pelvis_tilt	pelvis_list	pelvis_rotation	pelvis_tx	pelvis_ty	pelvis_tz	hip_flexion_r	hip_adduction_r	hip_rotation_r	knee_angle_r	knee_angle_r_beta	ankle_angle_r	subtalar_angle_r	mtp_angle_r	hip_flexion_l	hip_adduction_l	hip_rotation_l	knee_angle_l	knee_angle_l_beta	ankle_angle_l	subtalar_angle_l	mtp_angle_l	lumbar_extension	lumbar_bending	lumbar_rotation	arm_flex_r	arm_add_r	arm_rot_r	elbow_flex_r	pro_sup_r	arm_flex_l	arm_add_l	arm_rot_l	elbow_flex_l	pro_sup_l
      5.15000000	      0.60537033	      0.21947903	     -0.28829988	      0.26790354	      0.92217003	     -0.03510487	      1.34666938	     -1.50055498	      4.86211350	     10.19677022	      0.17796721	     13.28252938	    -14.21256565	     -7.49999987	      0.72784941	     -9.75525120	     -7.24822183	      7.98058204	      0.13928743	      5.83182568	     -0.92080505	     -7.49999987	     -8.54731546	      0.81999648	      2.53587424	      1.02397617	    -16.25725020	     19.20003105	     20.11262579	     49.58214775	    357.90570195	    -16.52463242	    374.28429044	     28.74483005	     48.11690141
      5.15416670	      0.64747432	      0.17432953	     -0.31040656	      0.26710937	      0.92151613	     -0.03481952	      1.22365970	     -1.40926612	      5.01585104	     10.13988166	      0.17697432	     13.43304924	    -14.33894042	     -7.49999987	      0.58574540	     -9.82543650	     -7.27461222	      7.83903101	      0.13681690	      5.83198019	     -0.97310934	     -7.49999987	     -8.49266220	      0.82193645	      2.72360002	      0.82601213	    -16.36828251	     19.85264536	     20.07443208	     47.92528745	    358.01171012	    -16.74955340	    375.65729276	     28.70740675	     45.44341895
      5.15833330	      0.58682820	      0.14206950	     -0.23488541	      0.26757648	      0.92271970	     -0.03439397	      1.16744003	     -1.32752130	      5.10315660	     10.00039264	      0.17453978	     13.46576801	    -14.43670651	     -7.49999987	      0.58432596	     -9.90093738	     -7.20789779	      7.70235603	      0.13443147	      5.70872880	     -1.11119776	     -7.49999987	     -8.36710529	      0.81463947	      2.73362581	      0.71934137	    -16.36568009	     20.00096546	     19.85991850	     47.96956290	    357.87477628	    -16.68425923	    374.96835117	     28.72166304	     46.34790838
      5.16250000	      0.55104399	      0.10036479	     -0.20957942	      0.26747989	      0.92118877	     -0.03442836	      1.08136424	     -1.24733969	      5.16792666	      9.85770782	      0.17204946	     13.44693643	    -14.47242762	     -7.49999987	      0.52445911	     -9.97925651	     -7.27445476	      7.50701384	      0.13102211	      5.76179285	     -1.11373113	     -7.49999987	     -8.26909161	      0.81694619	      2.82969483	      0.50541975	    -16.38645061	     19.85908197	     20.03352791	     48.50303686	    357.76720382	    -16.67313995	    374.46127205	     28.66728094	     48.38033785
      5.16666670	      0.47634386	      0.05726726	     -0.19835143	      0.26913646	      0.92368352	     -0.03401169	      1.02458548	     -1.13667793	      5.29662709	      9.69373379	      0.16918757	     13.33586431	    -14.67626701	     -7.49999987	      0.49059149	    -10.05482641	     -7.40023963	      7.37245285	      0.12867358	      5.77506394	     -1.00021305	     -7.49999987	     -8.09380024	      0.79500550	      2.73534266	      0.56280179	    -16.21460176	     19.90452821	     19.47511707	     48.49333869	    357.42601979	    -16.53261905	    373.07797593	     28.72536122	     48.92021618
      5.17083330	      0.39582628	      0.03851450	     -0.11876156	      0.26827879	      0.92341320	     -0.03469224	      0.99102653	     -1.11139018	      5.17539956	      9.54491941	      0.16659027	     13.45670821	    -14.54844312	     -7.49999987	      0.50310949	    -10.05065067	     -7.27487280	      7.20595501	      0.12576764	      5.66556124	     -1.28404731	     -7.49999987	     -7.95571894	      0.77692651	      2.83017332	      0.35884391	    -16.23604051	     20.13862259	     19.42464507	     48.75185145	    357.41031242	    -16.56575486	    373.16755642	     28.60231410	     50.19958441
      5.17500000	      0.36663213	      0.03594163	     -0.10170664	      0.26835467	      0.92346391	     -0.03601996	      0.88580429	     -1.14718150	      4.96467181	      9.31389295	      0.16255810	     13.58920602	    -14.06392413	     -7.49999987	      0.43079111	    -10.00457061	     -7.33740525	      7.03645193	      0.12280925	      5.50420595	     -1.35212256	     -7.49999987	     -7.93155760	      0.74672555	      2.86230208	      0.11081745	    -16.31442118	     19.89216581	     19.85337480	     49.11241404	    357.07282911	    -16.41553305	    371.61332865	     29.33064203	     50.54833335
      5.17916670	      0.30015064	      0.02592459	     -0.04545688	      0.27091252	      0.92535806	     -0.03431784	      0.84750368	     -1.09527925	      5.27717630	      9.20930044	      0.16073261	     13.24485334	    -14.76133393	     -7.49999987	      0.39640942	    -10.02439722	     -7.49409841	      6.93587736	      0.12105390	      5.66753321	     -0.97161901	     -7.49999987	     -7.71013018	      0.73194032	      2.68193820	      0.34830951	    -16.04290780	     19.93132729	     18.79419160	     49.25657913	    356.95692129	    -16.28426970	    371.00139381	     28.62756066	     51.81212577
      5.18333330	      0.29858401	      0.03207279	      0.04886536	      0.27092938	      0.92617699	     -0.03540435	      0.68335916	     -1.14087198	      5.11600766	      9.03205712	      0.15763913	     13.16015697	    -14.63173810	     -7.49999987	      0.28930446	     -9.96190690	     -7.43484836	      6.83355356	      0.11926801	      5.66390475	     -0.99307250	     -7.49999987	     -7.61713679	      0.72603138	      2.88314951	     -0.08638712	    -16.13134175	     20.28345490	     19.20721551	     46.97972460	    357.22712757	    -16.49197942	    373.23493595	     28.35527857	     47.52815084
      5.18750000	      0.30330660	      0.05548121	      0.08693930	      0.27034492	      0.92637913	     -0.03523851	      0.57276858	     -1.17643436	      5.25202447	      8.86623658	      0.15474502	     12.92243113	    -14.81874374	     -7.49999987	      0.18019189	     -9.88034220	     -7.49564592	      6.71934289	      0.11727466	      5.65498554	     -0.89605555	     -7.49999987	     -7.58491308	      0.67398216	      2.77449223	     -0.05073301	    -16.06146378	     20.28266837	     18.99166194	     48.19912207	    357.03745210	    -16.36334522	    372.05819110	     28.30294146	     49.85886959
      5.19166670	      0.29041253	      0.06113764	      0.14407915	      0.27058754	      0.92550121	     -0.03559493	      0.51597056	     -1.20407315	      5.23078351	      8.77763335	      0.15319860	     12.87126779	    -14.82872785	     -7.49999987	      0.14665071	     -9.82748005	     -7.43900039	      6.68442764	      0.11666527	      5.65493698	     -0.95214384	     -7.49999987	     -7.52396215	      0.66702635	      2.82065046	     -0.15572135	    -16.05801681	     20.43350527	     18.86443882	     48.11722617	    357.04946142	    -16.31480700	    371.80755696	     28.19632393	     50.51993293
      5.19583330	      0.24682595	      0.07774211	      0.20462793	      0.27142683	      0.92472719	     -0.03534389	      0.47297075	     -1.21719314	      5.30049589	      8.67308402	      0.15137387	     12.81364334	    -14.88419669	     -7.49999987	      0.18768588	     -9.79665610	     -7.43936119	      6.69391170	      0.11683080	      5.62757313	     -0.96904630	     -7.49999987	     -7.41149853	      0.62361788	      2.79490910	     -0.20802804	    -15.98570663	     20.36244998	     18.63660265	     47.98850214	    357.01940434	    -16.28976791	    371.43913860	     28.09863631	     50.62207104
      5.20000000	      0.25790510	      0.10066425	      0.30753525	      0.27062959	      0.92467845	     -0.03542921	      0.37955676	     -1.23851969	      5.23397455	      8.57208034	      0.14961103	     12.78900456	    -14.83995148	     -7.49999987	      0.22805574	     -9.78716604	     -7.45701630	      6.76795363	      0.11812307	      5.63989844	     -0.97888876	     -7.49999987	     -7.40170861	      0.60708371	      2.65674097	     -0.22917674	    -15.92642882	     20.02854957	     18.52781002	     48.25929299	    356.96991104	    -16.20554032	    370.72239093	     28.00828733	     51.03790757
      5.20416670	      0.22943640	      0.15093484	      0.35560770	      0.27161246	      0.92592505	     -0.03632684	      0.27887350	     -1.30281883	      5.18107180	      8.40041162	      0.14661484	     12.71171559	    -14.71443668	     -7.49999987	      0.19671566	     -9.72073792	     -7.49565081	      6.67921376	      0.11657427	      5.52675308	     -1.01458319	     -7.49999987	     -7.31325591	      0.56378550	      2.73618383	     -0.42534669	    -15.97851027	     20.22208902	     18.67331797	     47.10101936	    357.12717079	    -16.33540582	    371.88230514	     27.88722811	     48.45487752
      5.20833330	      0.21114468	      0.18497184	      0.41305061	      0.27241771	      0.92439618	     -0.03653129	      0.16730004	     -1.36333835	      5.06525645	      8.22608161	      0.14357221	     12.59872846	    -14.59341586	     -7.49999987	      0.14036851	     -9.67163717	     -7.60044276	      6.55323818	      0.11437558	      5.55773620	     -0.90676681	     -7.49999987	     -7.24567413	      0.52625888	      2.64862753	     -0.46448289	    -15.97254106	     20.19210569	     18.53290827	     47.71136076	    356.97635359	    -16.23863307	    370.93102878	     27.94307374	     50.14434369
      5.21250000	      0.21178905	      0.17860670	      0.49199401	      0.27190102	      0.91969728	     -0.03573977	      0.07768544	     -1.39865405	      4.84009179	      8.09927625	      0.14135904	     12.56628150	    -14.61690044	     -7.49999987	      0.15269607	     -9.68964614	     -7.57492419	      6.48428665	      0.11317215	      5.45786354	     -0.91428464	     -7.49999987	     -7.33144923	      0.50074627	      2.37598272	     -0.25146165	    -15.96837986	     20.20561419	     18.30402458	     47.51436515	    356.74810524	    -16.03204432	    369.04331033	     28.24394720	     50.90862832
      5.21666670	      0.19685126	      0.17102821	      0.47895320	      0.27369766	      0.92349000	     -0.03637984	      0.05486667	     -1.43293159	      4.83536941	      8.10560046	      0.14146942	     12.56237536	    -14.61842602	     -7.49999987	      0.16450338	     -9.71290421	     -7.57851578	      6.47864789	      0.11307374	      5.45846088	     -0.91624809	     -7.49999987	     -7.32600696	      0.49791708	      2.38107106	     -0.25439833	    -15.96444386	     20.20630655	     18.30489327	     47.51438886	    356.74119321	    -16.03808807	    369.04365024	     28.24162284	     50.90840292
